# protecto29sep.blend - geometria y escala preparadas para Unity
mtllib Paleta.mtl
o Aro_de_la_empunadura_00
v -0.001893 0.038737 0.018954
v -0.001483 0.030347 0.018954
v 0.007573 0.039200 0.016415
v 0.007983 0.030810 0.016415
v 0.014503 0.039538 0.009477
v 0.014912 0.031148 0.009477
v 0.017039 0.039662 -0.000000
v 0.017449 0.031272 -0.000000
v 0.014503 0.039538 -0.009477
v 0.014912 0.031148 -0.009477
v 0.007573 0.039200 -0.016415
v 0.007983 0.030810 -0.016415
v -0.001893 0.038737 -0.018954
v -0.001483 0.030347 -0.018954
v -0.011358 0.038275 -0.016415
v -0.010948 0.029885 -0.016415
v -0.018288 0.037936 -0.009477
v -0.017878 0.029547 -0.009477
v -0.020824 0.037813 0.000000
v -0.020414 0.029423 0.000000
v -0.018288 0.037936 0.009477
v -0.017878 0.029547 0.009477
v -0.011358 0.038275 0.016415
v -0.010948 0.029885 0.016415
usemtl M021_Aros_de_la_empunadura
f 1 2 4 3
f 3 4 6 5
f 5 6 8 7
f 7 8 10 9
f 9 10 12 11
f 11 12 14 13
f 13 14 16 15
f 15 16 18 17
f 17 18 20 19
f 19 20 22 21
f 4 2 24 22 20 18 16 14 12 10 8 6
f 21 22 24 23
f 23 24 2 1
f 1 3 5 7 9 11 13 15 17 19 21 23
o Aro_de_la_empunadura_01
v 0.001483 -0.030348 0.018954
v 0.001893 -0.038738 0.018954
v 0.010948 -0.029885 0.016415
v 0.011358 -0.038275 0.016415
v 0.017878 -0.029547 0.009477
v 0.018288 -0.037937 0.009477
v 0.020414 -0.029423 -0.000000
v 0.020824 -0.037813 -0.000000
v 0.017878 -0.029547 -0.009477
v 0.018288 -0.037937 -0.009477
v 0.010948 -0.029885 -0.016415
v 0.011358 -0.038275 -0.016415
v 0.001483 -0.030348 -0.018954
v 0.001893 -0.038738 -0.018954
v -0.007983 -0.030810 -0.016415
v -0.007573 -0.039200 -0.016415
v -0.014912 -0.031149 -0.009477
v -0.014503 -0.039539 -0.009477
v -0.017449 -0.031272 0.000000
v -0.017039 -0.039662 0.000000
v -0.014912 -0.031149 0.009477
v -0.014503 -0.039539 0.009477
v -0.007983 -0.030810 0.016415
v -0.007573 -0.039200 0.016415
usemtl M021_Aros_de_la_empunadura
f 25 26 28 27
f 27 28 30 29
f 29 30 32 31
f 31 32 34 33
f 33 34 36 35
f 35 36 38 37
f 37 38 40 39
f 39 40 42 41
f 41 42 44 43
f 43 44 46 45
f 28 26 48 46 44 42 40 38 36 34 32 30
f 45 46 48 47
f 47 48 26 25
f 25 27 29 31 33 35 37 39 41 43 45 47
o Cabeza_del_palo
v -0.084115 -0.649103 -0.028080
v -0.082943 -0.667265 -0.009880
v -0.101657 -0.650235 -0.009880
v -0.083286 -0.661945 -0.022749
v -0.093566 -0.660242 -0.020388
v -0.095690 -0.662746 -0.009880
v -0.096519 -0.649903 -0.022749
v -0.082943 -0.667265 0.000520
v -0.084115 -0.649103 0.018720
v -0.101657 -0.650235 0.000520
v -0.083286 -0.661945 0.013389
v -0.093566 -0.660242 0.011028
v -0.096519 -0.649903 0.013389
v -0.095690 -0.662746 0.000520
v -0.086293 -0.615373 -0.028080
v -0.103835 -0.616505 -0.009880
v -0.087465 -0.597211 -0.009880
v -0.098697 -0.616174 -0.022749
v -0.097098 -0.605541 -0.020388
v -0.099526 -0.603331 -0.009880
v -0.087122 -0.602530 -0.022749
v -0.086293 -0.615373 0.018720
v -0.087465 -0.597211 0.000520
v -0.103835 -0.616505 0.000520
v -0.087122 -0.602530 0.013389
v -0.097098 -0.605541 0.011028
v -0.099526 -0.603331 0.000520
v -0.098697 -0.616174 0.013389
v 0.086293 -0.638101 -0.028080
v 0.103835 -0.636969 -0.009880
v 0.087465 -0.656263 -0.009880
v 0.098697 -0.637300 -0.022749
v 0.097098 -0.647933 -0.020388
v 0.099526 -0.650143 -0.009880
v 0.087122 -0.650944 -0.022749
v 0.086293 -0.638101 0.018720
v 0.087465 -0.656263 0.000520
v 0.103835 -0.636969 0.000520
v 0.087122 -0.650944 0.013389
v 0.097098 -0.647933 0.011028
v 0.099526 -0.650143 0.000520
v 0.098697 -0.637300 0.013389
v 0.084115 -0.604371 -0.028080
v 0.082943 -0.586209 -0.009880
v 0.101657 -0.603239 -0.009880
v 0.083286 -0.591529 -0.022749
v 0.093566 -0.593232 -0.020388
v 0.095690 -0.590728 -0.009880
v 0.096519 -0.603571 -0.022749
v 0.084115 -0.604371 0.018720
v 0.101657 -0.603239 0.000520
v 0.082943 -0.586209 0.000520
v 0.096519 -0.603571 0.013389
v 0.093566 -0.593232 0.011028
v 0.095690 -0.590728 0.000520
v 0.083286 -0.591529 0.013389
usemtl M022_Metal_del_palo
f 49 52 53 55
f 50 54 53 52
f 51 55 53 54
f 56 59 60 62
f 57 61 60 59
f 58 62 60 61
f 63 66 67 69
f 64 68 67 66
f 65 69 67 68
f 70 73 74 76
f 71 75 74 73
f 72 76 74 75
f 77 80 81 83
f 78 82 81 80
f 79 83 81 82
f 84 87 88 90
f 85 89 88 87
f 86 90 88 89
f 91 94 95 97
f 92 96 95 94
f 93 97 95 96
f 98 101 102 104
f 99 103 102 101
f 100 104 102 103
f 63 49 55 66
f 66 55 51 64
f 50 56 62 54
f 54 62 58 51
f 57 70 76 61
f 61 76 72 58
f 71 65 68 75
f 75 68 64 72
f 91 63 69 94
f 94 69 65 92
f 70 98 104 73
f 73 104 100 71
f 99 93 96 103
f 103 96 92 100
f 77 91 97 80
f 80 97 93 78
f 98 84 90 101
f 101 90 86 99
f 85 79 82 89
f 89 82 78 86
f 49 77 83 52
f 52 83 79 50
f 84 57 59 87
f 87 59 56 85
f 63 91 77 49
f 51 58 72 64
f 79 85 56 50
f 98 70 57 84
f 65 71 100 92
f 93 99 86 78
o Cuello_del_palo
v 0.041272 -0.623500 0.012870
v -0.012214 -0.653698 0.012870
v 0.044991 -0.630087 0.010412
v -0.008495 -0.660286 0.010412
v 0.047290 -0.634159 0.003977
v -0.006196 -0.664357 0.003977
v 0.047290 -0.634159 -0.003977
v -0.006196 -0.664357 -0.003977
v 0.044991 -0.630087 -0.010412
v -0.008495 -0.660286 -0.010412
v 0.041272 -0.623500 -0.012870
v -0.012214 -0.653698 -0.012870
v 0.037553 -0.616913 -0.010412
v -0.015933 -0.647111 -0.010412
v 0.035254 -0.612841 -0.003977
v -0.018232 -0.643040 -0.003977
v 0.035254 -0.612841 0.003977
v -0.018232 -0.643040 0.003977
v 0.037553 -0.616913 0.010412
v -0.015933 -0.647111 0.010412
usemtl M022_Metal_del_palo
f 105 106 108 107
f 107 108 110 109
f 109 110 112 111
f 111 112 114 113
f 113 114 116 115
f 115 116 118 117
f 117 118 120 119
f 119 120 122 121
f 108 106 124 122 120 118 116 114 112 110
f 121 122 124 123
f 123 124 106 105
f 105 107 109 111 113 115 117 119 121 123
o Empunadura_del_palo
v -0.003835 0.078506 0.023400
v 0.003835 -0.078506 0.023400
v 0.007851 0.079077 0.020265
v 0.015521 -0.077935 0.020265
v 0.016405 0.079495 0.011700
v 0.024076 -0.077517 0.011700
v 0.019537 0.079648 -0.000000
v 0.027208 -0.077364 0.000000
v 0.016405 0.079495 -0.011700
v 0.024076 -0.077517 -0.011700
v 0.007851 0.079077 -0.020265
v 0.015521 -0.077935 -0.020265
v -0.003835 0.078506 -0.023400
v 0.003835 -0.078506 -0.023400
v -0.015521 0.077935 -0.020265
v -0.007851 -0.079077 -0.020265
v -0.024076 0.077517 -0.011700
v -0.016405 -0.079495 -0.011700
v -0.027208 0.077364 -0.000000
v -0.019537 -0.079648 0.000000
v -0.024076 0.077517 0.011700
v -0.016405 -0.079495 0.011700
v -0.015521 0.077935 0.020265
v -0.007851 -0.079077 0.020265
usemtl M023_Empunadura
f 125 126 128 127
f 127 128 130 129
f 129 130 132 131
f 131 132 134 133
f 133 134 136 135
f 135 136 138 137
f 137 138 140 139
f 139 140 142 141
f 141 142 144 143
f 143 144 146 145
f 128 126 148 146 144 142 140 138 136 134 132 130
f 145 146 148 147
f 147 148 126 125
f 125 127 129 131 133 135 137 139 141 143 145 147
o Ranura_de_la_cara_00
v -0.058783 -0.647517 0.018720
v -0.058783 -0.647517 0.020520
v -0.058957 -0.644823 0.018720
v -0.058957 -0.644823 0.020520
v 0.060967 -0.639786 0.018720
v 0.060967 -0.639786 0.020520
v 0.060793 -0.637092 0.018720
v 0.060793 -0.637092 0.020520
usemtl M024_Ranuras_oscuras_de_la_cara
f 149 150 152 151
f 151 152 156 155
f 155 156 154 153
f 153 154 150 149
f 151 155 153 149
f 156 152 150 154
o Ranura_de_la_cara_01
v -0.059788 -0.631950 0.018720
v -0.059788 -0.631950 0.020520
v -0.059962 -0.629255 0.018720
v -0.059962 -0.629255 0.020520
v 0.059962 -0.624219 0.018720
v 0.059962 -0.624219 0.020520
v 0.059788 -0.621524 0.018720
v 0.059788 -0.621524 0.020520
usemtl M024_Ranuras_oscuras_de_la_cara
f 157 158 160 159
f 159 160 164 163
f 163 164 162 161
f 161 162 158 157
f 159 163 161 157
f 164 160 158 162
o Ranura_de_la_cara_02
v -0.060793 -0.616382 0.018720
v -0.060793 -0.616382 0.020520
v -0.060967 -0.613688 0.018720
v -0.060967 -0.613688 0.020520
v 0.058957 -0.608651 0.018720
v 0.058957 -0.608651 0.020520
v 0.058783 -0.605957 0.018720
v 0.058783 -0.605957 0.020520
usemtl M024_Ranuras_oscuras_de_la_cara
f 165 166 168 167
f 167 168 172 171
f 171 172 170 169
f 169 170 166 165
f 167 171 169 165
f 172 168 166 170
o Varilla_del_palo
v 0.001302 -0.012369 0.012870
v 0.041272 -0.623500 0.012870
v 0.007723 -0.011949 0.011146
v 0.047693 -0.623080 0.011146
v 0.012424 -0.011642 0.006435
v 0.052394 -0.622773 0.006435
v 0.014144 -0.011529 0.000000
v 0.054115 -0.622660 -0.000000
v 0.012424 -0.011642 -0.006435
v 0.052394 -0.622773 -0.006435
v 0.007723 -0.011949 -0.011146
v 0.047693 -0.623080 -0.011146
v 0.001302 -0.012369 -0.012870
v 0.041272 -0.623500 -0.012870
v -0.005119 -0.012789 -0.011146
v 0.034851 -0.623920 -0.011146
v -0.009820 -0.013097 -0.006435
v 0.030150 -0.624227 -0.006435
v -0.011541 -0.013209 0.000000
v 0.028429 -0.624340 -0.000000
v -0.009820 -0.013097 0.006435
v 0.030150 -0.624227 0.006435
v -0.005119 -0.012789 0.011146
v 0.034851 -0.623920 0.011146
usemtl M022_Metal_del_palo
f 173 174 176 175
f 175 176 178 177
f 177 178 180 179
f 179 180 182 181
f 181 182 184 183
f 183 184 186 185
f 185 186 188 187
f 187 188 190 189
f 189 190 192 191
f 191 192 194 193
f 176 174 196 194 192 190 188 186 184 182 180 178
f 193 194 196 195
f 195 196 174 173
f 173 175 177 179 181 183 185 187 189 191 193 195
