# protecto29sep.blend - geometria y escala preparadas para Unity
mtllib Paleta.mtl
o Pelota_de_golf
v 0.000000 0.077327 0.051668
v 0.000000 0.051668 0.077327
v 0.000000 0.018143 0.091213
v 0.000000 0.000000 0.093000
v 0.000000 -0.018143 0.091213
v 0.000000 -0.051668 0.077327
v 0.003540 0.091213 0.017795
v 0.006943 0.085921 0.034906
v 0.010080 0.077327 0.050675
v 0.012829 0.065761 0.064497
v 0.015086 0.051668 0.075841
v 0.016762 0.035590 0.084270
v 0.017795 0.018143 0.089460
v 0.018143 0.000000 0.091213
v 0.017795 -0.018143 0.089460
v 0.016762 -0.035590 0.084270
v 0.015086 -0.051668 0.075841
v 0.012829 -0.065761 0.064497
v 0.010080 -0.077327 0.050675
v 0.006943 -0.085921 0.034906
v 0.003540 -0.091213 0.017795
v 0.006943 0.091213 0.016762
v 0.013620 0.085921 0.032880
v 0.019772 0.077327 0.047735
v 0.025166 0.065761 0.060755
v 0.029592 0.051668 0.071441
v 0.032880 0.035590 0.079380
v 0.034906 0.018143 0.084270
v 0.035590 0.000000 0.085921
v 0.034906 -0.018143 0.084270
v 0.032880 -0.035590 0.079380
v 0.029592 -0.051668 0.071441
v 0.025166 -0.065761 0.060755
v 0.019772 -0.077327 0.047735
v 0.013620 -0.085921 0.032880
v 0.006943 -0.091213 0.016762
v 0.010080 0.091213 0.015086
v 0.019772 0.085921 0.029592
v 0.028705 0.077327 0.042960
v 0.036535 0.065761 0.054678
v 0.042960 0.051668 0.064295
v 0.047735 0.035590 0.071441
v 0.050675 0.018143 0.075841
v 0.051668 0.000000 0.077327
v 0.050675 -0.018143 0.075841
v 0.047735 -0.035590 0.071441
v 0.042960 -0.051668 0.064295
v 0.036535 -0.065761 0.054678
v 0.028705 -0.077327 0.042960
v 0.019772 -0.085921 0.029592
v 0.010080 -0.091213 0.015086
v 0.012829 0.091213 0.012829
v 0.025166 0.085921 0.025166
v 0.036535 0.077327 0.036535
v 0.046500 0.065761 0.046500
v 0.054678 0.051668 0.054678
v 0.060755 0.035590 0.060755
v 0.064497 0.018143 0.064497
v 0.065761 0.000000 0.065761
v 0.064497 -0.018143 0.064497
v 0.060755 -0.035590 0.060755
v 0.054678 -0.051668 0.054678
v 0.046500 -0.065761 0.046500
v 0.036535 -0.077327 0.036535
v 0.025166 -0.085921 0.025166
v 0.012829 -0.091213 0.012829
v 0.015086 0.091213 0.010080
v 0.029592 0.085921 0.019773
v 0.042960 0.077327 0.028705
v 0.054678 0.065761 0.036535
v 0.064295 0.051668 0.042960
v 0.071441 0.035590 0.047735
v 0.075841 0.018143 0.050675
v 0.077327 0.000000 0.051668
v 0.075841 -0.018143 0.050675
v 0.071441 -0.035590 0.047735
v 0.064295 -0.051668 0.042960
v 0.054678 -0.065761 0.036535
v 0.042960 -0.077327 0.028705
v 0.029592 -0.085921 0.019773
v 0.015086 -0.091213 0.010080
v 0.000000 0.093000 0.000000
v 0.016762 0.091213 0.006943
v 0.032880 0.085921 0.013620
v 0.047735 0.077327 0.019773
v 0.060755 0.065761 0.025166
v 0.071441 0.051668 0.029592
v 0.079380 0.035590 0.032880
v 0.084270 0.018143 0.034906
v 0.085921 0.000000 0.035590
v 0.084270 -0.018143 0.034906
v 0.079380 -0.035590 0.032880
v 0.071441 -0.051668 0.029592
v 0.060755 -0.065761 0.025166
v 0.047735 -0.077327 0.019773
v 0.032880 -0.085921 0.013620
v 0.016762 -0.091213 0.006943
v 0.017795 0.091213 0.003540
v 0.034906 0.085921 0.006943
v 0.050675 0.077327 0.010080
v 0.064497 0.065761 0.012829
v 0.075841 0.051668 0.015086
v 0.084270 0.035590 0.016762
v 0.089460 0.018143 0.017795
v 0.091213 0.000000 0.018143
v 0.089460 -0.018143 0.017795
v 0.084270 -0.035590 0.016762
v 0.075841 -0.051668 0.015086
v 0.064497 -0.065761 0.012829
v 0.050675 -0.077327 0.010080
v 0.034906 -0.085921 0.006943
v 0.017795 -0.091213 0.003540
v 0.018143 0.091213 0.000000
v 0.035590 0.085921 0.000000
v 0.051668 0.077327 0.000000
v 0.065761 0.065761 0.000000
v 0.077327 0.051668 0.000000
v 0.085921 0.035590 0.000000
v 0.091213 0.018143 0.000000
v 0.093000 0.000000 0.000000
v 0.091213 -0.018143 0.000000
v 0.085921 -0.035590 0.000000
v 0.077327 -0.051668 0.000000
v 0.065761 -0.065761 0.000000
v 0.051668 -0.077327 0.000000
v 0.035590 -0.085921 0.000000
v 0.018143 -0.091213 0.000000
v 0.017795 0.091213 -0.003540
v 0.034906 0.085921 -0.006943
v 0.050675 0.077327 -0.010080
v 0.064497 0.065761 -0.012829
v 0.075841 0.051668 -0.015086
v 0.084270 0.035590 -0.016762
v 0.089460 0.018143 -0.017795
v 0.091213 0.000000 -0.018143
v 0.089460 -0.018143 -0.017795
v 0.084270 -0.035590 -0.016762
v 0.075841 -0.051668 -0.015086
v 0.064497 -0.065761 -0.012829
v 0.050675 -0.077327 -0.010080
v 0.034906 -0.085921 -0.006943
v 0.017795 -0.091213 -0.003540
v 0.016762 0.091213 -0.006943
v 0.032880 0.085921 -0.013620
v 0.047735 0.077327 -0.019773
v 0.060755 0.065761 -0.025166
v 0.071441 0.051668 -0.029592
v 0.079380 0.035590 -0.032880
v 0.084270 0.018143 -0.034906
v 0.085921 0.000000 -0.035590
v 0.084270 -0.018143 -0.034906
v 0.079380 -0.035590 -0.032880
v 0.071441 -0.051668 -0.029592
v 0.060755 -0.065761 -0.025166
v 0.047735 -0.077327 -0.019773
v 0.032880 -0.085921 -0.013620
v 0.016762 -0.091213 -0.006943
v 0.015086 0.091213 -0.010080
v 0.029592 0.085921 -0.019773
v 0.042960 0.077327 -0.028705
v 0.054678 0.065761 -0.036535
v 0.064295 0.051668 -0.042960
v 0.071441 0.035590 -0.047735
v 0.075841 0.018143 -0.050675
v 0.077327 0.000000 -0.051668
v 0.075841 -0.018143 -0.050675
v 0.071441 -0.035590 -0.047735
v 0.064295 -0.051668 -0.042960
v 0.054678 -0.065761 -0.036535
v 0.042960 -0.077327 -0.028705
v 0.029592 -0.085921 -0.019773
v 0.015086 -0.091213 -0.010080
v 0.012829 0.091213 -0.012829
v 0.025166 0.085921 -0.025166
v 0.036535 0.077327 -0.036535
v 0.046500 0.065761 -0.046500
v 0.054678 0.051668 -0.054678
v 0.060755 0.035590 -0.060755
v 0.064497 0.018143 -0.064497
v 0.065761 0.000000 -0.065761
v 0.064497 -0.018143 -0.064497
v 0.060755 -0.035590 -0.060755
v 0.054678 -0.051668 -0.054678
v 0.046500 -0.065761 -0.046500
v 0.036535 -0.077327 -0.036535
v 0.025166 -0.085921 -0.025166
v 0.012829 -0.091213 -0.012829
v 0.010080 0.091213 -0.015086
v 0.019772 0.085921 -0.029592
v 0.028705 0.077327 -0.042960
v 0.036535 0.065761 -0.054678
v 0.042960 0.051668 -0.064295
v 0.047735 0.035590 -0.071441
v 0.050675 0.018143 -0.075841
v 0.051668 0.000000 -0.077327
v 0.050675 -0.018143 -0.075841
v 0.047735 -0.035590 -0.071441
v 0.042960 -0.051668 -0.064295
v 0.036535 -0.065761 -0.054678
v 0.028705 -0.077327 -0.042960
v 0.019772 -0.085921 -0.029592
v 0.010080 -0.091213 -0.015086
v 0.006943 0.091213 -0.016762
v 0.013620 0.085921 -0.032880
v 0.019772 0.077327 -0.047735
v 0.025166 0.065761 -0.060755
v 0.029592 0.051668 -0.071441
v 0.032880 0.035590 -0.079380
v 0.034906 0.018143 -0.084270
v 0.035590 0.000000 -0.085921
v 0.034906 -0.018143 -0.084270
v 0.032880 -0.035590 -0.079380
v 0.029592 -0.051668 -0.071441
v 0.025166 -0.065761 -0.060755
v 0.019772 -0.077327 -0.047735
v 0.013620 -0.085921 -0.032880
v 0.006943 -0.091213 -0.016762
v 0.003540 0.091213 -0.017795
v 0.006943 0.085921 -0.034906
v 0.010080 0.077327 -0.050675
v 0.012829 0.065761 -0.064497
v 0.015086 0.051668 -0.075841
v 0.016762 0.035590 -0.084270
v 0.017795 0.018143 -0.089460
v 0.018143 0.000000 -0.091213
v 0.017795 -0.018143 -0.089460
v 0.016762 -0.035590 -0.084270
v 0.015086 -0.051668 -0.075841
v 0.012829 -0.065761 -0.064497
v 0.010080 -0.077327 -0.050675
v 0.006943 -0.085921 -0.034906
v 0.003540 -0.091213 -0.017795
v 0.000000 0.091213 -0.018143
v 0.000000 0.085921 -0.035590
v -0.000000 0.077327 -0.051668
v 0.000000 0.065761 -0.065761
v -0.000000 0.051668 -0.077327
v 0.000000 0.035590 -0.085921
v -0.000000 0.018143 -0.091213
v -0.000000 0.000000 -0.093000
v -0.000000 -0.018143 -0.091213
v 0.000000 -0.035590 -0.085921
v -0.000000 -0.051668 -0.077327
v 0.000000 -0.065761 -0.065761
v -0.000000 -0.077327 -0.051668
v 0.000000 -0.085921 -0.035590
v 0.000000 -0.091213 -0.018143
v -0.003540 0.091213 -0.017795
v -0.006943 0.085921 -0.034906
v -0.010080 0.077327 -0.050675
v -0.012829 0.065761 -0.064497
v -0.015086 0.051668 -0.075841
v -0.016762 0.035590 -0.084270
v -0.017795 0.018143 -0.089460
v -0.018143 0.000000 -0.091213
v -0.017795 -0.018143 -0.089460
v -0.016762 -0.035590 -0.084270
v -0.015086 -0.051668 -0.075841
v -0.012829 -0.065761 -0.064497
v -0.010080 -0.077327 -0.050675
v -0.006943 -0.085921 -0.034906
v -0.003540 -0.091213 -0.017795
v -0.006943 0.091213 -0.016762
v -0.013620 0.085921 -0.032880
v -0.019772 0.077327 -0.047735
v -0.025166 0.065761 -0.060755
v -0.029592 0.051668 -0.071441
v -0.032880 0.035590 -0.079380
v -0.034906 0.018143 -0.084270
v -0.035590 0.000000 -0.085921
v -0.034906 -0.018143 -0.084270
v -0.032880 -0.035590 -0.079380
v -0.029592 -0.051668 -0.071441
v -0.025166 -0.065761 -0.060755
v -0.019772 -0.077327 -0.047735
v -0.013620 -0.085921 -0.032880
v -0.006943 -0.091213 -0.016762
v -0.010080 0.091213 -0.015086
v -0.019772 0.085921 -0.029592
v -0.028705 0.077327 -0.042960
v -0.036535 0.065761 -0.054678
v -0.042960 0.051668 -0.064295
v -0.047735 0.035590 -0.071441
v -0.050675 0.018143 -0.075841
v -0.051668 0.000000 -0.077327
v -0.050675 -0.018143 -0.075841
v -0.047735 -0.035590 -0.071441
v -0.042960 -0.051668 -0.064295
v -0.036535 -0.065761 -0.054678
v -0.028705 -0.077327 -0.042960
v -0.019772 -0.085921 -0.029592
v -0.010080 -0.091213 -0.015086
v -0.012829 0.091213 -0.012829
v -0.025166 0.085921 -0.025166
v -0.036535 0.077327 -0.036535
v -0.046500 0.065761 -0.046500
v -0.054678 0.051668 -0.054678
v -0.060755 0.035590 -0.060755
v -0.064497 0.018143 -0.064497
v -0.065761 0.000000 -0.065761
v -0.064497 -0.018143 -0.064497
v -0.060755 -0.035590 -0.060755
v -0.054678 -0.051668 -0.054678
v -0.046500 -0.065761 -0.046500
v -0.036535 -0.077327 -0.036535
v -0.025166 -0.085921 -0.025166
v -0.012829 -0.091213 -0.012829
v 0.000000 -0.093000 0.000000
v -0.015086 0.091213 -0.010080
v -0.029592 0.085921 -0.019772
v -0.042960 0.077327 -0.028705
v -0.054678 0.065761 -0.036535
v -0.064295 0.051668 -0.042960
v -0.071440 0.035590 -0.047735
v -0.075841 0.018143 -0.050675
v -0.077327 0.000000 -0.051668
v -0.075841 -0.018143 -0.050675
v -0.071440 -0.035590 -0.047735
v -0.064295 -0.051668 -0.042960
v -0.054678 -0.065761 -0.036535
v -0.042960 -0.077327 -0.028705
v -0.029592 -0.085921 -0.019772
v -0.015086 -0.091213 -0.010080
v -0.016762 0.091213 -0.006943
v -0.032880 0.085921 -0.013620
v -0.047735 0.077327 -0.019772
v -0.060755 0.065761 -0.025166
v -0.071440 0.051668 -0.029592
v -0.079380 0.035590 -0.032880
v -0.084270 0.018143 -0.034906
v -0.085921 0.000000 -0.035589
v -0.084270 -0.018143 -0.034906
v -0.079380 -0.035590 -0.032880
v -0.071440 -0.051668 -0.029592
v -0.060755 -0.065761 -0.025166
v -0.047735 -0.077327 -0.019772
v -0.032880 -0.085921 -0.013620
v -0.016762 -0.091213 -0.006943
v -0.017795 0.091213 -0.003540
v -0.034906 0.085921 -0.006943
v -0.050675 0.077327 -0.010080
v -0.064497 0.065761 -0.012829
v -0.075841 0.051668 -0.015086
v -0.084270 0.035590 -0.016762
v -0.089460 0.018143 -0.017795
v -0.091213 0.000000 -0.018143
v -0.089460 -0.018143 -0.017795
v -0.084270 -0.035590 -0.016762
v -0.075841 -0.051668 -0.015086
v -0.064497 -0.065761 -0.012829
v -0.050675 -0.077327 -0.010080
v -0.034906 -0.085921 -0.006943
v -0.017795 -0.091213 -0.003540
v -0.018143 0.091213 0.000000
v -0.035590 0.085921 0.000000
v -0.051668 0.077327 0.000000
v -0.065761 0.065761 0.000000
v -0.077327 0.051668 0.000000
v -0.085921 0.035590 0.000000
v -0.091213 0.018143 0.000000
v -0.093000 0.000000 0.000000
v -0.091213 -0.018143 0.000000
v -0.085921 -0.035590 0.000000
v -0.077327 -0.051668 0.000000
v -0.065761 -0.065761 0.000000
v -0.051668 -0.077327 0.000000
v -0.035590 -0.085921 0.000000
v -0.018143 -0.091213 0.000000
v -0.017795 0.091213 0.003540
v -0.034906 0.085921 0.006943
v -0.050675 0.077327 0.010080
v -0.064497 0.065761 0.012829
v -0.075841 0.051668 0.015086
v -0.084270 0.035590 0.016762
v -0.089460 0.018143 0.017795
v -0.091213 0.000000 0.018143
v -0.089460 -0.018143 0.017795
v -0.084270 -0.035590 0.016762
v -0.075841 -0.051668 0.015086
v -0.064497 -0.065761 0.012829
v -0.050675 -0.077327 0.010080
v -0.034906 -0.085921 0.006943
v -0.017795 -0.091213 0.003540
v -0.016762 0.091213 0.006943
v -0.032880 0.085921 0.013620
v -0.047735 0.077327 0.019773
v -0.060755 0.065761 0.025166
v -0.071440 0.051668 0.029592
v -0.079380 0.035590 0.032880
v -0.084270 0.018143 0.034906
v -0.085921 0.000000 0.035590
v -0.084270 -0.018143 0.034906
v -0.079380 -0.035590 0.032880
v -0.071440 -0.051668 0.029592
v -0.060755 -0.065761 0.025166
v -0.047735 -0.077327 0.019773
v -0.032880 -0.085921 0.013620
v -0.016762 -0.091213 0.006943
v -0.015086 0.091213 0.010080
v -0.029592 0.085921 0.019773
v -0.042960 0.077327 0.028705
v -0.054678 0.065761 0.036535
v -0.064295 0.051668 0.042960
v -0.071440 0.035590 0.047735
v -0.075841 0.018143 0.050675
v -0.077327 0.000000 0.051668
v -0.075841 -0.018143 0.050675
v -0.071440 -0.035590 0.047735
v -0.064295 -0.051668 0.042960
v -0.054678 -0.065761 0.036535
v -0.042960 -0.077327 0.028705
v -0.029592 -0.085921 0.019773
v -0.015086 -0.091213 0.010080
v -0.012829 0.091213 0.012829
v -0.025166 0.085921 0.025166
v -0.036535 0.077327 0.036535
v -0.046500 0.065761 0.046500
v -0.054678 0.051668 0.054678
v -0.060755 0.035590 0.060755
v -0.064497 0.018143 0.064497
v -0.065761 0.000000 0.065761
v -0.064497 -0.018143 0.064497
v -0.060755 -0.035590 0.060755
v -0.054678 -0.051668 0.054678
v -0.046500 -0.065761 0.046500
v -0.036535 -0.077327 0.036535
v -0.025166 -0.085921 0.025166
v -0.012829 -0.091213 0.012829
v -0.010080 0.091213 0.015086
v -0.019772 0.085921 0.029592
v -0.028705 0.077327 0.042960
v -0.036535 0.065761 0.054678
v -0.042960 0.051668 0.064295
v -0.047735 0.035590 0.071441
v -0.050675 0.018143 0.075841
v -0.051668 0.000000 0.077327
v -0.050675 -0.018143 0.075841
v -0.047735 -0.035590 0.071441
v -0.042960 -0.051668 0.064295
v -0.036535 -0.065761 0.054678
v -0.028705 -0.077327 0.042960
v -0.019772 -0.085921 0.029592
v -0.010080 -0.091213 0.015086
v -0.006943 0.091213 0.016762
v -0.013620 0.085921 0.032880
v -0.019772 0.077327 0.047735
v -0.025166 0.065761 0.060755
v -0.029592 0.051668 0.071440
v -0.032880 0.035590 0.079380
v -0.034906 0.018143 0.084270
v -0.035589 0.000000 0.085921
v -0.034906 -0.018143 0.084270
v -0.032880 -0.035590 0.079380
v -0.029592 -0.051668 0.071440
v -0.025166 -0.065761 0.060755
v -0.019772 -0.077327 0.047735
v -0.013620 -0.085921 0.032880
v -0.006943 -0.091213 0.016762
v -0.003540 0.091213 0.017795
v -0.006943 0.085921 0.034906
v -0.010080 0.077327 0.050675
v -0.012829 0.065761 0.064497
v -0.015086 0.051668 0.075841
v -0.016762 0.035590 0.084270
v -0.017795 0.018143 0.089460
v -0.018143 0.000000 0.091213
v -0.017795 -0.018143 0.089460
v -0.016762 -0.035590 0.084270
v -0.015086 -0.051668 0.075841
v -0.012829 -0.065761 0.064497
v -0.010080 -0.077327 0.050675
v -0.006943 -0.085921 0.034906
v -0.003540 -0.091213 0.017795
v 0.000000 0.091213 0.018143
v 0.000000 0.085921 0.035590
v 0.000000 0.065761 0.065761
v 0.000000 0.035590 0.085921
v 0.000000 -0.035590 0.085921
v 0.000000 -0.065761 0.065761
v 0.000000 -0.077327 0.051668
v 0.000000 -0.085921 0.035590
v 0.000000 -0.091213 0.018143
usemtl M013_Pelota_marfil
f 11 10 476 2
f 19 18 479 480
f 12 11 2 477
f 20 19 480 481
f 13 12 477 3
f 21 20 481 482
f 14 13 3 4
f 7 82 474
f 21 482 308
f 15 14 4 5
f 8 7 474 475
f 16 15 5 478
f 9 8 475 1
f 17 16 478 6
f 10 9 1 476
f 18 17 6 479
f 32 31 16 17
f 25 24 9 10
f 33 32 17 18
f 26 25 10 11
f 34 33 18 19
f 27 26 11 12
f 35 34 19 20
f 28 27 12 13
f 36 35 20 21
f 29 28 13 14
f 22 82 7
f 36 21 308
f 30 29 14 15
f 23 22 7 8
f 31 30 15 16
f 24 23 8 9
f 51 50 35 36
f 44 43 28 29
f 37 82 22
f 51 36 308
f 45 44 29 30
f 38 37 22 23
f 46 45 30 31
f 39 38 23 24
f 47 46 31 32
f 40 39 24 25
f 48 47 32 33
f 41 40 25 26
f 49 48 33 34
f 42 41 26 27
f 50 49 34 35
f 43 42 27 28
f 63 62 47 48
f 56 55 40 41
f 64 63 48 49
f 57 56 41 42
f 65 64 49 50
f 58 57 42 43
f 66 65 50 51
f 59 58 43 44
f 52 82 37
f 66 51 308
f 60 59 44 45
f 53 52 37 38
f 61 60 45 46
f 54 53 38 39
f 62 61 46 47
f 55 54 39 40
f 67 82 52
f 81 66 308
f 75 74 59 60
f 68 67 52 53
f 76 75 60 61
f 69 68 53 54
f 77 76 61 62
f 70 69 54 55
f 78 77 62 63
f 71 70 55 56
f 79 78 63 64
f 72 71 56 57
f 80 79 64 65
f 73 72 57 58
f 81 80 65 66
f 74 73 58 59
f 87 86 70 71
f 95 94 78 79
f 88 87 71 72
f 96 95 79 80
f 89 88 72 73
f 97 96 80 81
f 90 89 73 74
f 83 82 67
f 97 81 308
f 91 90 74 75
f 84 83 67 68
f 92 91 75 76
f 85 84 68 69
f 93 92 76 77
f 86 85 69 70
f 94 93 77 78
f 106 105 90 91
f 99 98 83 84
f 107 106 91 92
f 100 99 84 85
f 108 107 92 93
f 101 100 85 86
f 109 108 93 94
f 102 101 86 87
f 110 109 94 95
f 103 102 87 88
f 111 110 95 96
f 104 103 88 89
f 112 111 96 97
f 105 104 89 90
f 98 82 83
f 112 97 308
f 125 124 109 110
f 118 117 102 103
f 126 125 110 111
f 119 118 103 104
f 127 126 111 112
f 120 119 104 105
f 113 82 98
f 127 112 308
f 121 120 105 106
f 114 113 98 99
f 122 121 106 107
f 115 114 99 100
f 123 122 107 108
f 116 115 100 101
f 124 123 108 109
f 117 116 101 102
f 129 128 113 114
f 137 136 121 122
f 130 129 114 115
f 138 137 122 123
f 131 130 115 116
f 139 138 123 124
f 132 131 116 117
f 140 139 124 125
f 133 132 117 118
f 141 140 125 126
f 134 133 118 119
f 142 141 126 127
f 135 134 119 120
f 128 82 113
f 142 127 308
f 136 135 120 121
f 148 147 132 133
f 156 155 140 141
f 149 148 133 134
f 157 156 141 142
f 150 149 134 135
f 143 82 128
f 157 142 308
f 151 150 135 136
f 144 143 128 129
f 152 151 136 137
f 145 144 129 130
f 153 152 137 138
f 146 145 130 131
f 154 153 138 139
f 147 146 131 132
f 155 154 139 140
f 167 166 151 152
f 160 159 144 145
f 168 167 152 153
f 161 160 145 146
f 169 168 153 154
f 162 161 146 147
f 170 169 154 155
f 163 162 147 148
f 171 170 155 156
f 164 163 148 149
f 172 171 156 157
f 165 164 149 150
f 158 82 143
f 172 157 308
f 166 165 150 151
f 159 158 143 144
f 186 185 170 171
f 179 178 163 164
f 187 186 171 172
f 180 179 164 165
f 173 82 158
f 187 172 308
f 181 180 165 166
f 174 173 158 159
f 182 181 166 167
f 175 174 159 160
f 183 182 167 168
f 176 175 160 161
f 184 183 168 169
f 177 176 161 162
f 185 184 169 170
f 178 177 162 163
f 198 197 182 183
f 191 190 175 176
f 199 198 183 184
f 192 191 176 177
f 200 199 184 185
f 193 192 177 178
f 201 200 185 186
f 194 193 178 179
f 202 201 186 187
f 195 194 179 180
f 188 82 173
f 202 187 308
f 196 195 180 181
f 189 188 173 174
f 197 196 181 182
f 190 189 174 175
f 217 216 201 202
f 210 209 194 195
f 203 82 188
f 217 202 308
f 211 210 195 196
f 204 203 188 189
f 212 211 196 197
f 205 204 189 190
f 213 212 197 198
f 206 205 190 191
f 214 213 198 199
f 207 206 191 192
f 215 214 199 200
f 208 207 192 193
f 216 215 200 201
f 209 208 193 194
f 221 220 205 206
f 229 228 213 214
f 222 221 206 207
f 230 229 214 215
f 223 222 207 208
f 231 230 215 216
f 224 223 208 209
f 232 231 216 217
f 225 224 209 210
f 218 82 203
f 232 217 308
f 226 225 210 211
f 219 218 203 204
f 227 226 211 212
f 220 219 204 205
f 228 227 212 213
f 240 239 224 225
f 233 82 218
f 247 232 308
f 241 240 225 226
f 234 233 218 219
f 242 241 226 227
f 235 234 219 220
f 243 242 227 228
f 236 235 220 221
f 244 243 228 229
f 237 236 221 222
f 245 244 229 230
f 238 237 222 223
f 246 245 230 231
f 239 238 223 224
f 247 246 231 232
f 259 258 243 244
f 252 251 236 237
f 260 259 244 245
f 253 252 237 238
f 261 260 245 246
f 254 253 238 239
f 262 261 246 247
f 255 254 239 240
f 248 82 233
f 262 247 308
f 256 255 240 241
f 249 248 233 234
f 257 256 241 242
f 250 249 234 235
f 258 257 242 243
f 251 250 235 236
f 263 82 248
f 277 262 308
f 271 270 255 256
f 264 263 248 249
f 272 271 256 257
f 265 264 249 250
f 273 272 257 258
f 266 265 250 251
f 274 273 258 259
f 267 266 251 252
f 275 274 259 260
f 268 267 252 253
f 276 275 260 261
f 269 268 253 254
f 277 276 261 262
f 270 269 254 255
f 282 281 266 267
f 290 289 274 275
f 283 282 267 268
f 291 290 275 276
f 284 283 268 269
f 292 291 276 277
f 285 284 269 270
f 278 82 263
f 292 277 308
f 286 285 270 271
f 279 278 263 264
f 287 286 271 272
f 280 279 264 265
f 288 287 272 273
f 281 280 265 266
f 289 288 273 274
f 301 300 285 286
f 294 293 278 279
f 302 301 286 287
f 295 294 279 280
f 303 302 287 288
f 296 295 280 281
f 304 303 288 289
f 297 296 281 282
f 305 304 289 290
f 298 297 282 283
f 306 305 290 291
f 299 298 283 284
f 307 306 291 292
f 300 299 284 285
f 293 82 278
f 307 292 308
f 321 320 304 305
f 314 313 297 298
f 322 321 305 306
f 315 314 298 299
f 323 322 306 307
f 316 315 299 300
f 309 82 293
f 323 307 308
f 317 316 300 301
f 310 309 293 294
f 318 317 301 302
f 311 310 294 295
f 319 318 302 303
f 312 311 295 296
f 320 319 303 304
f 313 312 296 297
f 333 332 317 318
f 326 325 310 311
f 334 333 318 319
f 327 326 311 312
f 335 334 319 320
f 328 327 312 313
f 336 335 320 321
f 329 328 313 314
f 337 336 321 322
f 330 329 314 315
f 338 337 322 323
f 331 330 315 316
f 324 82 309
f 338 323 308
f 332 331 316 317
f 325 324 309 310
f 352 351 336 337
f 345 344 329 330
f 353 352 337 338
f 346 345 330 331
f 339 82 324
f 353 338 308
f 347 346 331 332
f 340 339 324 325
f 348 347 332 333
f 341 340 325 326
f 349 348 333 334
f 342 341 326 327
f 350 349 334 335
f 343 342 327 328
f 351 350 335 336
f 344 343 328 329
f 356 355 340 341
f 364 363 348 349
f 357 356 341 342
f 365 364 349 350
f 358 357 342 343
f 366 365 350 351
f 359 358 343 344
f 367 366 351 352
f 360 359 344 345
f 368 367 352 353
f 361 360 345 346
f 354 82 339
f 368 353 308
f 362 361 346 347
f 355 354 339 340
f 363 362 347 348
f 375 374 359 360
f 383 382 367 368
f 376 375 360 361
f 369 82 354
f 383 368 308
f 377 376 361 362
f 370 369 354 355
f 378 377 362 363
f 371 370 355 356
f 379 378 363 364
f 372 371 356 357
f 380 379 364 365
f 373 372 357 358
f 381 380 365 366
f 374 373 358 359
f 382 381 366 367
f 394 393 378 379
f 387 386 371 372
f 395 394 379 380
f 388 387 372 373
f 396 395 380 381
f 389 388 373 374
f 397 396 381 382
f 390 389 374 375
f 398 397 382 383
f 391 390 375 376
f 384 82 369
f 398 383 308
f 392 391 376 377
f 385 384 369 370
f 393 392 377 378
f 386 385 370 371
f 413 412 397 398
f 406 405 390 391
f 399 82 384
f 413 398 308
f 407 406 391 392
f 400 399 384 385
f 408 407 392 393
f 401 400 385 386
f 409 408 393 394
f 402 401 386 387
f 410 409 394 395
f 403 402 387 388
f 411 410 395 396
f 404 403 388 389
f 412 411 396 397
f 405 404 389 390
f 417 416 401 402
f 425 424 409 410
f 418 417 402 403
f 426 425 410 411
f 419 418 403 404
f 427 426 411 412
f 420 419 404 405
f 428 427 412 413
f 421 420 405 406
f 414 82 399
f 428 413 308
f 422 421 406 407
f 415 414 399 400
f 423 422 407 408
f 416 415 400 401
f 424 423 408 409
f 436 435 420 421
f 429 82 414
f 443 428 308
f 437 436 421 422
f 430 429 414 415
f 438 437 422 423
f 431 430 415 416
f 439 438 423 424
f 432 431 416 417
f 440 439 424 425
f 433 432 417 418
f 441 440 425 426
f 434 433 418 419
f 442 441 426 427
f 435 434 419 420
f 443 442 427 428
f 455 454 439 440
f 448 447 432 433
f 456 455 440 441
f 449 448 433 434
f 457 456 441 442
f 450 449 434 435
f 458 457 442 443
f 451 450 435 436
f 444 82 429
f 458 443 308
f 452 451 436 437
f 445 444 429 430
f 453 452 437 438
f 446 445 430 431
f 454 453 438 439
f 447 446 431 432
f 473 458 308
f 467 466 451 452
f 460 459 444 445
f 468 467 452 453
f 461 460 445 446
f 469 468 453 454
f 462 461 446 447
f 470 469 454 455
f 463 462 447 448
f 471 470 455 456
f 464 463 448 449
f 472 471 456 457
f 465 464 449 450
f 473 472 457 458
f 466 465 450 451
f 459 82 444
f 480 479 470 471
f 477 2 463 464
f 481 480 471 472
f 3 477 464 465
f 482 481 472 473
f 4 3 465 466
f 474 82 459
f 482 473 308
f 5 4 466 467
f 475 474 459 460
f 478 5 467 468
f 1 475 460 461
f 6 478 468 469
f 476 1 461 462
f 479 6 469 470
f 2 476 462 463
